<svg xmlns="http://www.w3.org/2000/svg" viewBox="0 0 300 300" xmlns:v="https://vecta.io/nano"><path fill="transparent" d="M0 0h300v300H0z"/><path d="M113.207 149.486h0 0q-.235-.615-.235-1.7h0 0q0-1.085.741-6.438h0 0q.741-5.335.741-8.572h0 0q0-.76-.109-2.08h0 0q1.917.109 2.405.904h0 0q.253.47.326.886h0 0q.072.416.072 1.32h0 0q0 .886-.814 6.746h0 0q-.832 5.86-.85 8.355h0 0q.127-.036.452-.036h0 0q5.48 0 8.156-.76h0 0q-.181 1.465-.995 2.279h0 0q-.832.814-2.062.814h0 0q-.362 0-2.188-.163h0 0q-1.845-.163-3.563-.163h0 0q-1.718 0-3.454.326h0 0q.344-1.121 1.374-1.718zm16.656-8.391h0 0q-.723 1.266-1.121 2.604h0 0q-.398 1.32-.398 2.55h0 0q0 1.212.543 2.062h0 0q.543.85 1.555.85h0 0q1.429 0 2.658-1.555h0 0q1.248-1.573 1.917-3.78h0 0q.669-2.224.669-4.105h0 0q0-1.881-.145-3.093h0 0q.597-.054.76-.054h0 0q2.152 0 2.152 2.206h0 0q0 .47-.615 3.906h0 0q-.597 3.436-.597 5.498h0 0q0 2.062.778 3.653h0 0q-1.591-.326-2.315-1.411h0 0q-.723-1.067-.723-3.093h0 0q0-.362.109-1.374h0 0q-.687 2.405-2.405 3.87h0 0q-1.736 1.483-3.382 1.483h0 0q-1.664 0-2.677-1.266h0 0q-1.013-1.248-1.013-3.454h0 0q0-2.224.832-4.34h0 0q.814-2.116 2.478-3.653h0 0q1.646-1.555 3.707-1.555h0 0q.886 0 1.953.362h0 0q-1.501.38-2.749 1.393h0 0q-1.23 1.013-1.971 2.297zm25.482-7.686h0l.018.307h0q0 .959-.723 6.294h0 0q-.723 5.317-.723 8.898h0 0q0 1.591.163 2.478h0 0q-.615.054-.669.054h0 0q-1.139 0-1.7-.524h0 0q-.543-.524-.543-1.7h0 0q0-1.176.85-7.198h0 0q.832-6.004.832-8.572h0 0q0-2.568-.344-3.364h0 0q.814.109 1.501.633h0 0q.705.506 1.049 1.374h0 0q1.935-1.031 4.304-1.031h0 0q2.351 0 3.707 1.447h0 0q1.356 1.465 1.356 3.581h0 0q0 2.713-1.971 4.883h0 0q-1.971 2.152-5.317 2.152h0 0q-.76 0-1.393-.09h0l-.072-.814h0q1.7 0 2.966-.506h0 0q1.266-.506 1.917-1.338h0 0q1.284-1.628 1.284-3.798h0 0q0-1.573-.995-2.622h0 0q-.995-1.049-2.894-1.049h0 0q-1.139 0-2.604.506zm14.685 7.686h0 0q-.741 1.266-1.139 2.604h0 0q-.38 1.32-.38 2.55h0 0q0 1.212.543 2.062h0 0q.543.85 1.555.85h0 0q1.411 0 2.658-1.555h0 0q1.23-1.573 1.899-3.78h0 0q.687-2.224.687-4.105h0 0q0-1.881-.163-3.093h0 0q.615-.054.76-.054h0 0q2.152 0 2.152 2.206h0 0q0 .47-.597 3.906h0 0q-.615 3.436-.615 5.498h0 0q0 2.062.778 3.653h0 0q-1.591-.326-2.315-1.411h0 0q-.723-1.067-.723-3.093h0 0q0-.362.109-1.374h0 0q-.687 2.405-2.405 3.87h0 0q-1.718 1.483-3.382 1.483h0 0q-1.664 0-2.677-1.266h0 0q-1.013-1.248-1.013-3.454h0 0q0-2.224.832-4.34h0 0q.814-2.116 2.478-3.653h0 0q1.664-1.555 3.707-1.555h0 0q.886 0 1.953.362h0 0q-1.501.38-2.731 1.393h0 0q-1.248 1.013-1.971 2.297zm24.216-1.103h0 0q0 1.157-.488 4.105h0 0q-.488 2.948-.488 4.304h0 0q0 1.338.326 1.935h0 0q.326.597 1.121 1.013h0 0q-.344.036-.94.036h0 0q-1.718 0-2.441-.651h0 0q-.723-.651-.723-2.315h0 0q0-.94.506-3.78h0 0q.506-2.857.506-4.196h0 0q0-1.664-1.013-1.664h0 0q-1.628 0-3.364 2.857h0 0q-1.736 2.857-1.736 6.89h0 0q0 1.591.163 2.478h0 0q-.669.054-.796.054h0 0q-2.224 0-2.224-2.188h0 0q0-.506.543-3.888h0 0q.524-3.4.524-5.407h0 0q0-2.026-.434-3.707h0 0q1.501.579 2.098 1.646h0 0q.597 1.085.597 2.46h0 0q0 1.374-.307 3.201h0 0q.832-2.857 2.622-4.811h0 0q1.772-1.971 3.328-1.971h0 0q2.622 0 2.622 3.599zm12.135-2.857h0 0q0 1.049-.398 1.465h0 0q-.416.398-1.194.398h0-1.827 0q-.109.669-.524 3.147h0 0q-.868 4.702-.868 7.107h0 0q0 2.405.362 3.201h0 0q-1.447-.543-2.062-1.61h0 0q-.597-1.085-.597-2.622h0 0q0-1.555.181-2.93h0 0q.199-1.374.543-3.219h0 0q.362-1.863.506-2.966h0 0q-1.447.199-2.839.814h0 0q-.036-.416-.036-.741h0 0q0-1.212.796-1.628h0 0q.814-.416 2.333-.416h0 0q.181-1.881.181-2.803h0 0q0-.922-.018-1.483h0 0q0-.561 0-.832h0 0q1.157.181 1.79 1.031h0 0q.633.832.633 2.315h0 0q0 .76-.127 1.845h0 0q2.206 0 3.111-.741h0 0q.054.362.054.669zm4.756 6.04h0q.832-2.857 2.568-4.811h0 0q1.736-1.971 3.255-1.971h0 0q1.519 0 2.152.922h0 0q.633.922.633 2.514h0 0q0 1.573-.488 4.431h0 0q-.488 2.876-.488 4.178h0 0q0 1.302.326 1.899h0 0q.326.597 1.103 1.013h0 0q-.326.036-.922.036h0 0q-1.628 0-2.405-.669h0 0q-.76-.669-.76-2.297h0 0q0-.94.506-3.78h0 0q.506-2.857.506-4.196h0 0q0-1.664-1.176-1.664h0 0q-.687 0-1.519.723h0 0q-.832.705-1.61 1.935h0 0q-.76 1.23-1.284 3.129h0 0q-.524 1.881-.524 3.707h0 0q0 1.845.163 2.731h0 0q-.615.054-.687.054h0 0q-1.194 0-1.754-.506h0 0q-.579-.506-.579-1.591h0 0q0-1.067.452-4.141h0 0q1.338-9.422 1.338-14.305h0 0q0-2.206-.289-2.966h0 0q1.465.543 2.062 1.573h0 0q.597 1.049.597 2.857h0 0q0 1.266-.506 5.317h0 0q-.488 4.051-.669 5.878h0zm19.152-5.462h0 0q-1.519 0-2.568 1.736h0 0q-1.067 1.754-1.411 4.105h0 .705 0q1.338 0 2.333-.38h0 0q.977-.38 1.519-.977h0 0q1.013-1.176 1.013-2.64h0 0q0-.832-.398-1.338h0 0q-.398-.506-1.194-.506zm3.563 10.254h0q-1.157 1.899-2.55 2.658h0 0q-1.393.76-3.237.76h0 0q-1.827 0-3.201-1.628h0 0q-1.374-1.61-1.374-4.557h0 0q0-3.346 1.809-5.968h0 0q.886-1.266 2.315-2.062h0 0q1.429-.778 3.147-.778h0 0q3.798 0 3.798 3.671h0 0q0 2.206-1.7 3.454h0 0q-1.718 1.248-3.961 1.248h0 0q-1.501 0-2.695-.271h0 0q-.018.253-.018.778h0 0q0 4.485 2.658 4.485h0 0q2.496 0 4.069-2.478h0 0q.94.127.94.687h0zm-.506-13.473h0 0q-.018.271-.271.524h0 0q-.235.235-.543.307h0 0q-.904-1.139-2.333-2.243h0 0q-1.429-1.121-2.912-1.573h0 0q.054-1.32 1.23-2.08h0 0q1.338.524 2.767 2.098h0 0q1.429 1.555 2.062 2.966zm7.469 8.283h0q.904-3.291 2.188-4.847h0 0q1.284-1.555 2.387-1.555h0 0q1.103 0 1.646.814h0 0q.561.832.561 2.098h0 0q0 1.266-.651 2.188h0 0q-.669.922-1.935.922h0 0q-.398 0-.633-.054h0 0q.868-1.248.868-2.532h0 0q0-.904-.741-.904h0 0q-.579 0-1.23.669h0 0q-.669.687-1.266 1.899h0 0q-.615 1.23-1.013 3.165h0 0q-.416 1.953-.416 4.214h0 0q0 .253.127 2.152h0 0q-.651.054-.76.054h0 0q-2.224 0-2.224-2.188h0 0q0-.506.543-3.888h0 0q.524-3.4.524-5.407h0 0q0-2.026-.434-3.707h0 0q1.501.579 2.098 1.646h0 0q.597 1.085.597 2.514h0 0q0 1.429-.235 2.749h0zm14.92-5.064h0 0q-1.519 0-2.586 1.736h0 0q-1.049 1.754-1.393 4.105h0 .705 0q1.338 0 2.333-.38h0 0q.977-.38 1.519-.977h0 0q1.013-1.176 1.013-2.64h0 0q0-.832-.398-1.338h0 0q-.398-.506-1.194-.506zm3.563 10.254h0q-1.157 1.899-2.55 2.658h0 0q-1.393.76-3.237.76h0 0q-1.827 0-3.201-1.628h0 0q-1.374-1.61-1.374-4.557h0 0q0-3.346 1.809-5.968h0 0q.886-1.266 2.315-2.062h0 0q1.429-.778 3.147-.778h0 0q3.798 0 3.798 3.671h0 0q0 2.206-1.7 3.454h0 0q-1.718 1.248-3.961 1.248h0 0q-1.501 0-2.695-.271h0 0q-.018.253-.018.778h0 0q0 4.485 2.658 4.485h0 0q2.496 0 4.069-2.478h0 0q.94.127.94.687h0z"/><g transform="matrix(.6415 0 0 .6415 37.32564 117.89614)" fill="#1d1d1b"><path d="M44 46.07V46a5.74 5.74 0 0 0-3.52-2.72h-.14a11.6 11.6 0 0 0-2.5-.47 15.62 15.62 0 0 1-6.43-2.38.75.75 0 0 0-.84 1.24 17.29 17.29 0 0 0 2 1.11c0 .1-.09.2-.12.31a6.09 6.09 0 0 0 4.15 7.51 6.46 6.46 0 0 0 1.78.25 5.9 5.9 0 0 0 4.69-2.28 10.33 10.33 0 0 1-.18 3 .75.75 0 0 0 .47 1 .76.76 0 0 0 .24 0 .75.75 0 0 0 .71-.51 11.57 11.57 0 0 0 .23-4.1 4.94 4.94 0 0 0-.54-1.89zm-4.47-1.49a1.28 1.28 0 0 1 0 .52 1.314 1.314 0 1 1-2.53-.71 1.27 1.27 0 0 1 .09-.17l.6.07a10.89 10.89 0 0 1 1.86.3zm.94 4.25a4.67 4.67 0 0 1-3.48.32 4.59 4.59 0 0 1-3.14-5.67v-.12a15.83 15.83 0 0 0 1.7.55v.06A2.8 2.8 0 1 0 41 45.14a3.86 3.86 0 0 1 1.48 1.32 4.27 4.27 0 0 1-1.99 2.37zm27.1-5.76c0-.11-.08-.2-.12-.31a17.29 17.29 0 0 0 2-1.11.75.75 0 0 0-.84-1.24 15.62 15.62 0 0 1-6.43 2.38 11.59 11.59 0 0 0-2.52.47h-.12A5.74 5.74 0 0 0 56 46v.05a4.94 4.94 0 0 0-.54 1.95 11.57 11.57 0 0 0 .23 4.1.756.756 0 0 0 1.43-.49 10.27 10.27 0 0 1-.19-3 5.9 5.9 0 0 0 4.69 2.28 6.46 6.46 0 0 0 1.78-.25 6.09 6.09 0 0 0 4.17-7.57zm-5.3 1.22l.6-.07a1.26 1.26 0 0 1 .09.17 1.3 1.3 0 0 1-.89 1.6 1.27 1.27 0 0 1-1.63-1.41 10.89 10.89 0 0 1 1.84-.29zm.73 4.86a4.67 4.67 0 0 1-3.48-.32 4.27 4.27 0 0 1-2-2.38A3.86 3.86 0 0 1 59 45.14a2.84 2.84 0 0 0 .07.37 2.8 2.8 0 0 0 2.69 2A2.8 2.8 0 0 0 64.41 44v-.06a15.83 15.83 0 0 0 1.7-.55v.12A4.59 4.59 0 0 1 63 49.15zm-16.67-4.26c-.16-2.25-2-3.68-5.15-3.92a11.57 11.57 0 0 1-4.68-1.69.75.75 0 0 0-.83 1.25 12.92 12.92 0 0 0 5.4 1.93c1.35.1 3.63.57 3.77 2.53a.75.75 0 0 0 .75.7h.05a.75.75 0 0 0 .69-.8zm12.98-2.43a12.92 12.92 0 0 0 5.4-1.93.75.75 0 0 0-.83-1.25A11.58 11.58 0 0 1 59.19 41c-3.11.24-5 1.67-5.15 3.92a.75.75 0 0 0 .7.8h.05a.75.75 0 0 0 .75-.7c.14-2.02 2.46-2.45 3.77-2.56zm-24.67-5.21a.75.75 0 1 0 1.16-.95l-3.19-3.92a.75.75 0 1 0-1.16.95zM38 35.08a.75.75 0 0 0 .7.48.75.75 0 0 0 .7-1l-1.41-3.68a.75.75 0 1 0-1.4.54zm4 .11a.75.75 0 0 0 .75-.69l.25-3.18a.75.75 0 0 0-.69-.81.74.74 0 0 0-.81.69l-.25 3.19a.75.75 0 0 0 .75.8zM95.31 61c-3.9-1.24-13.08-1.13-20.54-.79 5-6.31 5-12.41 4.11-15.28-.68-2.15-1.73-7.57-.39-9.68a1.56 1.56 0 0 1 1.18-.77c1.76-.23 2.08-2.06 2.33-3.52a8.38 8.38 0 0 1 .35-1.54 4.25 4.25 0 0 1 1.22-1.37 10.59 10.59 0 0 0 3.18-4.23c1.59-3.91-.54-5.84-.63-5.92a.73.73 0 0 0-.28-.13h-.14a6.16 6.16 0 0 0-4.81.73 51.69 51.69 0 0 1-2.76 1.25 6.88 6.88 0 0 1-8-1.32c-4.5-4.32-7.67-5.57-20.08-5.57s-15.54 1.26-20 5.57a6.88 6.88 0 0 1-8 1.32 51.69 51.69 0 0 1-2.76-1.25 6.16 6.16 0 0 0-4.81-.73h-.14a.73.73 0 0 0-.28.13c-.09.08-2.22 2-.63 5.92a10.59 10.59 0 0 0 3.18 4.23 4.26 4.26 0 0 1 1.22 1.37A8.4 8.4 0 0 1 18 31c.25 1.47.56 3.29 2.33 3.52a1.56 1.56 0 0 1 1.18.77c1.34 2.11.29 7.53-.39 9.68-.91 2.87-.87 9 4.11 15.28-7.46-.34-16.64-.45-20.54.79a.751.751 0 0 0 .46 1.43c4.09-1.3 15-1 21.18-.66h.25l.65.69c-7.68.11-12.89.64-15.5 1.58a.75.75 0 1 0 .51 1.41c2.58-.93 8.3-1.45 16.56-1.51.35.3.71.59 1.07.88-6.47.36-17 1.21-21 3a.75.75 0 0 0 .6 1.37c4.17-1.83 16.18-2.64 22.22-2.95l1 .72.1.07c-6.29.61-10.59 1.4-12.79 2.36a.75.75 0 0 0 .6 1.37c2.07-.91 6.45-1.69 12.72-2.28A19.94 19.94 0 0 0 34 74c1.63 4.32 3.86 5.38 6.46 5.6a5.67 5.67 0 0 0 1.52 1.81 15.18 15.18 0 0 0-3.39 4.47.75.75 0 0 0 1.4.54c.27-.7 1.08-2 3.29-4.19a10.86 10.86 0 0 0 2 .78 11.32 11.32 0 0 0-.92 3.43.75.75 0 0 0 .71.79.75.75 0 0 0 .75-.71 10.34 10.34 0 0 1 .91-3.17 19.89 19.89 0 0 0 6.54 0 10.5 10.5 0 0 1 .91 3.17.75.75 0 0 0 .75.71.75.75 0 0 0 .71-.79 11.32 11.32 0 0 0-.89-3.44 10.86 10.86 0 0 0 2-.78c2.21 2.19 3 3.49 3.29 4.19a.75.75 0 0 0 1.4-.54 15.18 15.18 0 0 0-3.39-4.47 5.67 5.67 0 0 0 1.52-1.81c2.6-.22 4.83-1.27 6.45-5.59a19.92 19.92 0 0 0 .65-5.45c6.27.59 10.66 1.37 12.72 2.28a.75.75 0 1 0 .6-1.37c-2.22-1-6.6-1.77-13-2.38l.8-.56.31-.22c6 .3 18.2 1.11 22.42 3a.75.75 0 0 0 .6-1.37c-4.06-1.78-14.61-2.62-21.07-3q.57-.43 1.11-.88c8.28.05 14 .57 16.59 1.51a.75.75 0 0 0 .51-1.41c-2.6-.94-7.81-1.47-15.5-1.58l.65-.69h.25c6.15-.31 17.09-.64 21.18.66a.805.805 0 0 0 .47-1.54zm-42 18.91a.75.75 0 1 0-1.3.75c.16.27.39.7.64 1.2a18.15 18.15 0 0 1-5.22 0c.35-.71.63-1.19.64-1.2a.75.75 0 1 0-1.3-.75c0 .06-.42.73-.87 1.66a7 7 0 0 1-3.58-2h2.43A6 6 0 0 0 50 76.43a6 6 0 0 0 5.29 3.13h2.43a7 7 0 0 1-3.58 2c-.45-.9-.83-1.56-.87-1.63zm17.1-17.26l-.08.06c-.84.7-1.77 1.38-2.68 2h-.78c.13-1.71.45-3.25 1.07-3.71a.762.762 0 0 0-.94-1.2c-1 .83-1.44 2.64-1.63 4.83h-.61a.73.73 0 0 0-.77.73.75.75 0 0 0 .73.77h.56v.74h-.18a.76.76 0 0 0-.81.68.75.75 0 0 0 .68.81h.21a20 20 0 0 1-.56 5.05c-1.41 3.75-3.1 4.54-5.55 4.66h-3.78a4.54 4.54 0 0 1-4.53-4.46 5.51 5.51 0 0 1 1.16-.84c1-.64 2.47-1.52 1.93-2.79-.19-.44-.06-.65 1.66-1.82l.63-.43a2.48 2.48 0 0 0 1.3-2 2.08 2.08 0 0 0-.95-1.6.74.74 0 0 0-1 .22.76.76 0 0 0 .21 1c.08.06.26.23.27.37s-.17.41-.66.75l-.62.43c-1.63 1.1-2.91 2-2.2 3.57-.08.25-.89.74-1.33 1a10.22 10.22 0 0 0-1.13.77 10.22 10.22 0 0 0-1.13-.77 7.46 7.46 0 0 1-1.33-.93c.71-1.67-.58-2.54-2.2-3.65l-.62-.43c-.48-.34-.66-.61-.66-.75s.18-.31.26-.37a.75.75 0 0 0-.81-1.26 2.08 2.08 0 0 0-.95 1.6 2.48 2.48 0 0 0 1.3 2l.63.43c1.73 1.17 1.85 1.38 1.66 1.82-.54 1.28.89 2.15 1.93 2.79a10.47 10.47 0 0 1 1.16.77 4.54 4.54 0 0 1-4.54 4.52h-1.56c-3.72.09-6 .14-7.78-4.66a20.07 20.07 0 0 1-.56-5.05h.21a.753.753 0 1 0-.13-1.5h-.14v-.74h.56a.75.75 0 0 0 0-1.5h-.61c-.19-2.19-.58-4-1.63-4.83A.818.818 0 1 0 32.06 61c.62.49.91 2 1.06 3.71h-.95c-.85-.64-1.7-1.31-2.48-2a.73.73 0 0 0-.15-.14l-.76-.69 2.33.15h.06a.751.751 0 0 0 .06-1.5l-4-.25c-5.44-6.19-5.58-12.2-4.72-14.92 0-.08 2.33-7.62.23-10.93a3.07 3.07 0 0 0-2.2-1.43c-.62-.08-.82-1-1-2.29a9.51 9.51 0 0 0-.44-1.84 5.37 5.37 0 0 0-1.63-1.95 9 9 0 0 1-2.78-3.67c-1-2.36-.23-3.66.1-4.08a3.19 3.19 0 0 1 2.07.54c.07.06 7.52 5.52 10.79 5.52H28c-3 2.15-4.76 4.9-4.76 7.59a.75.75 0 0 0 1.5 0c0-2.81 2.6-5.89 6.63-7.86a13.71 13.71 0 0 0 4.48-1.49.75.75 0 1 0-.73-1.31 15.48 15.48 0 0 1-7.56 1.58c-1.25 0-3.64-1.21-5.86-2.55a8.3 8.3 0 0 0 9.3-1.73c4-3.82 6.49-5.15 19-5.15s15 1.34 19 5.15a8.18 8.18 0 0 0 5.77 2.45 9.77 9.77 0 0 0 3.44-.68c-2.21 1.33-4.6 2.53-5.84 2.53a15.48 15.48 0 0 1-7.56-1.58.75.75 0 0 0-.73 1.31A13.72 13.72 0 0 0 68.59 25c4 2 6.63 5 6.63 7.86a.75.75 0 0 0 1.5 0c0-2.7-1.77-5.45-4.76-7.59h.44c3.27 0 10.72-5.46 10.79-5.52a3.19 3.19 0 0 1 2.06-.54c.33.43 1.05 1.73.1 4.08a9 9 0 0 1-2.78 3.67 5.37 5.37 0 0 0-1.63 1.95 9.49 9.49 0 0 0-.44 1.84c-.23 1.33-.42 2.21-1 2.29a3.07 3.07 0 0 0-2.25 1.45c-2.11 3.31.2 10.86.23 10.93.87 2.73.72 8.74-4.72 14.92l-4 .25a.751.751 0 0 0 .06 1.5h.06l2.33-.15c-.21.23-.52.47-.8.71zm-5.64-25.12a.75.75 0 0 0 .58-.28l3.19-3.92a.75.75 0 1 0-1.16-.95l-3.19 3.92a.75.75 0 0 0 .58 1.22zm-3.7-2.02a.74.74 0 0 0 .27 0 .75.75 0 0 0 .7-.48l1.41-3.68a.75.75 0 1 0-1.4-.54l-1.41 3.68a.75.75 0 0 0 .43 1.02zM58 35.2a.75.75 0 0 0 .69-.81l-.25-3.19a.752.752 0 0 0-1.5.12l.25 3.19a.75.75 0 0 0 .81.69z"/><circle cx="38.13" cy="69.84" r="1.05"/><circle cx="38.48" cy="73.41" r="1.05"/><circle cx="41.22" cy="75.76" r="1.05"/><circle cx="42.14" cy="72.11" r="1.05"/><circle cx="45.06" cy="73.95" r="1.05"/><circle cx="61.87" cy="69.84" r="1.05"/><circle cx="61.52" cy="73.41" r="1.05"/><circle cx="58.78" cy="75.76" r="1.05"/><circle cx="57.86" cy="72.11" r="1.05"/><circle cx="54.94" cy="73.95" r="1.05"/><path d="M53.56 52.5a.75.75 0 0 0-.81.69A9.21 9.21 0 0 1 50 58.58a9.16 9.16 0 0 1-2.73-5.4.75.75 0 0 0-1.5.12 11 11 0 0 0 3.73 6.86.75.75 0 0 0 .47.17.75.75 0 0 0 .47-.17 11 11 0 0 0 3.73-6.86.75.75 0 0 0-.61-.8zm-13.19 2.7a.75.75 0 0 0-1 .27c-.2.35-.46.72-.73 1.11-1.34 1.94-3.36 4.88-.51 8a.75.75 0 0 0 1.1-1c-1.89-2.05-.93-3.82.64-6.1l.79-1.21a.75.75 0 0 0-.29-1.07zm20.32.27a.75.75 0 1 0-1.3.75c.22.38.5.78.79 1.21 1.57 2.28 2.53 4.05.64 6.1a.75.75 0 1 0 1.1 1c2.85-3.09.83-6-.51-8l-.72-1.06zM41.89 65a.75.75 0 0 0-1.43-.46 4.13 4.13 0 0 0 1.91 4.82.75.75 0 0 0 .75-1.3A2.62 2.62 0 0 1 41.89 65zm15.73 4.33a4.13 4.13 0 0 0 1.91-4.82.75.75 0 0 0-1.43.46A2.62 2.62 0 0 1 56.87 68a.75.75 0 0 0 .75 1.3zm-4.74-4.18a3.83 3.83 0 0 1-5.77 0 .75.75 0 0 0-1.16 1 5.32 5.32 0 0 0 8.08 0 .75.75 0 0 0-1.16-1zM30.51 50.52a.75.75 0 1 0-.72 1.31c2.63 1.45 3.77 3.59 3.77 4.36a.75.75 0 0 0 1.5 0c0-1.55-1.7-4.1-4.55-5.67zm40.08.3a.75.75 0 0 0-1-.3C66.72 52.09 65 54.64 65 56.2a.75.75 0 0 0 1.5 0c0-.77 1.14-2.92 3.77-4.36a.75.75 0 0 0 .32-1.02z"/></g><path d="M115.537 167.103l-.575-1.438h-2.192l-.57 1.438h-.367l1.83-4.582h.412l1.83 4.582h-.367zm-2.638-1.755h1.939l-.798-1.998-.169-.486h-.005l-.169.471-.798 2.013zm8.976-.486h1.884v2.241h-.278l-.015-.798h0q-.188.417-.585.645h0 0q-.402.223-.992.223h0 0q-.625 0-1.091-.288h0 0q-.471-.288-.724-.823h0 0q-.253-.536-.253-1.25h0 0q0-.714.263-1.25h0 0q.258-.536.729-.823h0 0q.471-.288 1.096-.288h0 0q.704 0 1.146.278h0 0q.446.278.669.848h0l-.322.164h0q-.159-.476-.536-.724h0 0q-.377-.248-.957-.248h0 0q-.511 0-.903.248h0 0q-.387.248-.6.709h0 0q-.218.461-.218 1.086h0 0q0 .952.456 1.498h0 0q.456.545 1.26.545h0 0q.501 0 .848-.198h0 0q.347-.198.511-.521h0 0q.169-.322.169-.694h0v-.253h-1.557v-.327zm6.933 1.924h2.891v.317h-3.238v-4.582h3.129v.317h-2.782v1.77h2.197v.327h-2.197v1.85zm10.89-4.265v4.582h-.431l-2.43-3.595-.337-.61h-.01l.025.575v3.63h-.337v-4.582h.441l2.42 3.59.347.615-.015-.575v-3.63h.327zm8.539 3.422h0q-.193.585-.674.907h0 0q-.486.322-1.155.322h0 0q-.625 0-1.101-.288h0 0q-.471-.288-.729-.823h0 0q-.253-.536-.253-1.25h0 0q0-.714.253-1.25h0 0q.258-.536.729-.823h0 0q.476-.288 1.091-.288h0 0q1.374 0 1.78 1.131h0l-.342.159h0q-.159-.486-.511-.729h0 0q-.352-.243-.907-.243h0 0q-.511 0-.903.248h0 0q-.392.248-.61.709h0 0q-.213.461-.213 1.086h0 0q0 .625.213 1.086h0 0q.208.461.595.709h0 0q.387.248.907.248h0 0q.555 0 .942-.273h0 0q.387-.273.541-.769h0l.347.129zm4.84.843h2.896v.317h-3.243v-4.582h3.129v.317h-2.782v1.77h2.202v.327h-2.202v1.85zm14.46-4.265h0q1.096 0 1.691.58h0 0q.595.58.595 1.676h0 0q0 1.126-.595 1.726h0 0q-.595.6-1.691.6h0-1.443v-4.582h1.443zm.03 4.265h0q.917 0 1.403-.521h0 0q.491-.516.491-1.488h0 0q0-.932-.491-1.433h0 0q-.486-.506-1.403-.506h0-1.126v3.947h1.126zm7.235 0h2.891v.317h-3.238v-4.582h3.129v.317h-2.782v1.77h2.197v.327h-2.197v1.85zm15.284-2.896l-.922 3.213h-.431l-1.428-4.582h.377l1.27 4.299 1.2-4.299h.402l1.2 4.304 1.284-4.304h.357l-1.433 4.582h-.426l-.927-3.213-.253-.992h-.01l-.258.992zm8.053 2.896h2.896v.317h-3.243v-4.582h3.134v.317h-2.787v1.77h2.202v.327h-2.202v1.85zm7.374.317v-4.582h1.617 0q.754 0 1.126.312h0 0q.367.312.367.903h0 0q0 .402-.218.679h0 0q-.218.278-.62.362h0v.005h0q.446.069.704.362h0 0q.263.293.263.724h0 0q0 .59-.422.912h0 0q-.422.322-1.2.322h0-1.617zm.347-2.47h1.279 0q1.116 0 1.116-.898h0 0q0-.898-1.116-.898h0-1.279v1.795zm0 2.152h1.339 0q.585 0 .883-.238h0 0q.298-.238.298-.679h0 0q0-.451-.298-.684h0 0q-.298-.233-.883-.233h0-1.339v1.835zm14.599-4.265h0q1.101 0 1.691.58h0 0q.595.58.595 1.676h0 0q0 1.126-.595 1.726h0 0q-.59.6-1.691.6h0-1.443v-4.582h1.443zm.03 4.265h0q.917 0 1.408-.521h0 0q.486-.516.486-1.488h0 0q0-.932-.486-1.433h0 0q-.491-.506-1.408-.506h0-1.126v3.947h1.126zm7.235 0h2.896v.317h-3.243v-4.582h3.129v.317h-2.782v1.77h2.202v.327h-2.202v1.85zm8.787-4.334h0q1.294 0 1.731 1.012h0l-.298.243h0q-.174-.491-.521-.714h0 0q-.342-.223-.903-.223h0 0q-.407 0-.704.129h0 0q-.298.124-.451.337h0 0q-.159.218-.159.486h0 0q0 .263.134.436h0 0q.129.174.446.298h0 0q.317.119.873.218h0 0q.893.154 1.27.446h0 0q.372.288.372.803h0 0q0 .367-.213.655h0 0q-.213.283-.605.436h0 0q-.397.159-.903.159h0 0q-.719 0-1.215-.288h0 0q-.501-.288-.679-.808h0l.307-.238h0q.139.496.555.754h0 0q.422.263 1.041.263h0 0q.595 0 .972-.243h0 0q.382-.243.382-.669h0 0q0-.367-.312-.58h0 0q-.307-.218-1.071-.347h0 0q-.645-.114-1.022-.273h0 0q-.372-.159-.536-.397h0 0q-.164-.233-.164-.59h0 0q0-.352.203-.65h0 0q.203-.302.585-.476h0 0q.377-.179.883-.179h0zm6.7.069v4.582h-.347v-4.582h.347zm6.68 2.341h1.879v2.241h-.278l-.01-.798h0q-.188.417-.59.645h0 0q-.397.223-.987.223h0 0q-.625 0-1.096-.288h0 0q-.466-.288-.719-.823h0 0q-.253-.536-.253-1.25h0 0q0-.714.258-1.25h0 0q.263-.536.734-.823h0 0q.471-.288 1.096-.288h0 0q.699 0 1.146.278h0 0q.446.278.665.848h0l-.317.164h0q-.159-.476-.536-.724h0 0q-.382-.248-.957-.248h0 0q-.516 0-.903.248h0 0q-.387.248-.605.709h0 0q-.213.461-.213 1.086h0 0q0 .952.456 1.498h0 0q.451.545 1.26.545h0 0q.496 0 .843-.198h0 0q.347-.198.516-.521h0 0q.169-.322.169-.694h0v-.253h-1.557v-.327zm10.101-2.341v4.582h-.431l-2.43-3.595-.337-.61h-.01l.02.575v3.63h-.332v-4.582h.436l2.425 3.59.347.615-.015-.575v-3.63h.327z"/></svg>